<svg width="28" height="29" viewBox="0 0 28 29" fill="none" xmlns="http://www.w3.org/2000/svg">
<g id="bi:apple" clip-path="url(#clip0_249_1401)">
<g id="Group">
<path id="Vector" d="M19.5685 0.945897C19.509 0.879397 17.3652 0.972147 15.4997 2.9969C13.6342 5.0199 13.9212 7.3404 13.9632 7.3999C14.0052 7.4594 16.6232 7.55215 18.2945 5.1984C19.9657 2.84465 19.628 1.01415 19.5685 0.945897ZM25.368 21.4786C25.284 21.3106 21.2992 19.3191 21.6702 15.4901C22.0412 11.6594 24.6015 10.6094 24.6417 10.4956C24.682 10.3819 23.597 9.11315 22.4472 8.4709C21.6031 8.01809 20.6688 7.75866 19.712 7.7114C19.523 7.70615 18.8667 7.54515 17.5175 7.9144C16.6285 8.15765 14.6247 8.94515 14.0735 8.97665C13.5205 9.00815 11.8755 8.06315 10.1062 7.8129C8.97399 7.59415 7.77349 8.04215 6.91424 8.3869C6.05674 8.7299 4.42574 9.7064 3.28474 12.3016C2.14374 14.8951 2.74049 19.0041 3.16749 20.2816C3.59449 21.5574 4.26124 23.6486 5.39524 25.1746C6.40324 26.8966 7.74024 28.0919 8.29849 28.4979C8.85674 28.9039 10.4317 29.1734 11.5237 28.6151C12.4022 28.0761 13.9877 27.7664 14.6142 27.7891C15.239 27.8119 16.471 28.0586 17.7327 28.7324C18.732 29.0771 19.677 28.9336 20.6237 28.5486C21.5705 28.1619 22.9407 26.6954 24.5402 23.7221C25.1475 22.3396 25.424 21.5924 25.368 21.4786Z" fill="black"/>
<path id="Vector_2" d="M19.5685 0.945897C19.509 0.879397 17.3652 0.972147 15.4997 2.9969C13.6342 5.0199 13.9212 7.3404 13.9632 7.3999C14.0052 7.4594 16.6232 7.55215 18.2945 5.1984C19.9657 2.84465 19.628 1.01415 19.5685 0.945897ZM25.368 21.4786C25.284 21.3106 21.2992 19.3191 21.6702 15.4901C22.0412 11.6594 24.6015 10.6094 24.6417 10.4956C24.682 10.3819 23.597 9.11315 22.4472 8.4709C21.6031 8.01809 20.6688 7.75866 19.712 7.7114C19.523 7.70615 18.8667 7.54515 17.5175 7.9144C16.6285 8.15765 14.6247 8.94515 14.0735 8.97665C13.5205 9.00815 11.8755 8.06315 10.1062 7.8129C8.97399 7.59415 7.77349 8.04215 6.91424 8.3869C6.05674 8.7299 4.42574 9.7064 3.28474 12.3016C2.14374 14.8951 2.74049 19.0041 3.16749 20.2816C3.59449 21.5574 4.26124 23.6486 5.39524 25.1746C6.40324 26.8966 7.74024 28.0919 8.29849 28.4979C8.85674 28.9039 10.4317 29.1734 11.5237 28.6151C12.4022 28.0761 13.9877 27.7664 14.6142 27.7891C15.239 27.8119 16.471 28.0586 17.7327 28.7324C18.732 29.0771 19.677 28.9336 20.6237 28.5486C21.5705 28.1619 22.9407 26.6954 24.5402 23.7221C25.1475 22.3396 25.424 21.5924 25.368 21.4786Z" fill="black"/>
</g>
</g>
<defs>
<clipPath id="clip0_249_1401">
<rect width="28" height="28" fill="white" transform="translate(0 0.931885)"/>
</clipPath>
</defs>
</svg>
