<svg width="28" height="29" viewBox="0 0 28 29" fill="none" xmlns="http://www.w3.org/2000/svg">
<g id="flat-color-icons:google">
<path id="Vector" d="M25.4398 12.147H24.5V12.0985H14V16.7652H20.5935C19.6315 19.4818 17.0468 21.4319 14 21.4319C10.1343 21.4319 7.00004 18.2976 7.00004 14.4319C7.00004 10.5661 10.1343 7.43188 14 7.43188C15.7845 7.43188 17.4079 8.10505 18.644 9.20463L21.9439 5.90471C19.8602 3.9628 17.073 2.76521 14 2.76521C7.55712 2.76521 2.33337 7.98896 2.33337 14.4319C2.33337 20.8748 7.55712 26.0985 14 26.0985C20.443 26.0985 25.6667 20.8748 25.6667 14.4319C25.6667 13.6496 25.5862 12.886 25.4398 12.147Z" fill="#FFC107"/>
<path id="Vector_2" d="M3.67847 9.00163L7.51155 11.8127C8.54872 9.24488 11.0606 7.43188 14 7.43188C15.7844 7.43188 17.4078 8.10505 18.6439 9.20463L21.9438 5.90471C19.8601 3.9628 17.073 2.76521 14 2.76521C9.5188 2.76521 5.63263 5.29513 3.67847 9.00163Z" fill="#FF3D00"/>
<path id="Vector_3" d="M14 26.0986C17.0135 26.0986 19.7517 24.9453 21.8219 23.0699L18.2111 20.0144C17.0004 20.9351 15.521 21.4331 14 21.4319C10.9655 21.4319 8.38894 19.497 7.41827 16.7967L3.61377 19.728C5.5446 23.5062 9.46577 26.0986 14 26.0986Z" fill="#4CAF50"/>
<path id="Vector_4" d="M25.4397 12.147H24.5V12.0986H14V16.7652H20.5934C20.1333 18.0581 19.3045 19.1879 18.2093 20.015L18.2111 20.0138L21.8219 23.0693C21.5664 23.3015 25.6667 20.2652 25.6667 14.4319C25.6667 13.6496 25.5862 12.8861 25.4397 12.147Z" fill="#1976D2"/>
</g>
</svg>
