<svg width="35" height="35" viewBox="0 0 35 35" fill="none" xmlns="http://www.w3.org/2000/svg">
<g id="Group 9">
<path id="Ellipse 218" d="M24.5088 33.449C28.7041 31.6003 32.0044 28.1762 33.6974 23.9156C35.3904 19.655 35.3403 14.8996 33.5579 10.6757C31.7755 6.45169 28.4038 3.09789 24.1704 1.33804C19.937 -0.421811 15.1814 -0.446588 10.9299 1.26906C6.67838 2.9847 3.2719 6.30319 1.44561 10.5084C-0.380683 14.7135 -0.48034 19.4681 1.16814 23.7461C2.81663 28.0241 6.08107 31.4824 10.257 33.3747C14.4328 35.267 19.1853 35.4415 23.4887 33.8606L19.6883 23.5156C18.1004 24.0989 16.3467 24.0345 14.8058 23.3363C13.2649 22.638 12.0604 21.3619 11.4521 19.7833C10.8438 18.2048 10.8806 16.4503 11.5545 14.8986C12.2284 13.3469 13.4853 12.1224 15.0541 11.4893C16.6229 10.8562 18.3778 10.8654 19.9399 11.5148C21.502 12.1641 22.7462 13.4017 23.4039 14.9603C24.0615 16.519 24.08 18.2737 23.4553 19.8459C22.8306 21.418 21.6128 22.6815 20.0647 23.3637L24.5088 33.449Z" fill="#1D1D1D"/>
<path id="Ellipse 217" d="M34.9319 17.4659C34.9319 14.7987 34.321 12.167 33.1462 9.77249C31.9713 7.37799 30.2637 5.28436 28.1542 3.65218C26.0447 2.01999 23.5895 0.892609 20.9767 0.356484C18.364 -0.17964 15.6631 -0.110261 13.0814 0.5593C10.4996 1.22886 8.10543 2.48082 6.08254 4.21916C4.05965 5.95749 2.46175 8.13603 1.41138 10.5877C0.36102 13.0394 -0.113904 15.699 0.0230354 18.3627C0.159975 21.0264 0.905139 23.6233 2.20138 25.9543L11.8333 20.5981C11.355 19.738 11.0801 18.7797 11.0295 17.7968C10.979 16.8139 11.1542 15.8325 11.5418 14.9279C11.9294 14.0232 12.519 13.2193 13.2655 12.5779C14.0119 11.9365 14.8954 11.4745 15.848 11.2274C16.8007 10.9803 17.7973 10.9547 18.7614 11.1526C19.7255 11.3504 20.6315 11.7664 21.4099 12.3687C22.1883 12.971 22.8184 13.7435 23.2519 14.6271C23.6854 15.5106 23.9109 16.4818 23.9109 17.4659H34.9319Z" fill="#00B2FF"/>
</g>
</svg>
